<svg width="248" height="160" viewBox="0 0 248 160" fill="none" xmlns="http://www.w3.org/2000/svg">
<rect width="175.668" height="63.3342" rx="12.6087" transform="matrix(0.975598 -0.219591 -0.212265 -0.977219 54.1499 120.551)" fill="#FFD843"/>
<g filter="url(#filter0_d_3961_86202)">
<rect width="175.75" height="63.3346" rx="12.6087" transform="matrix(0.975598 -0.21959 -0.212266 -0.977218 53.3403 116.853)" fill="white"/>
</g>
<rect width="47.4279" height="44.638" rx="9.29958" transform="matrix(0.975641 -0.219397 -0.212465 -0.977174 64.8374 105.282)" fill="#FFD843" fill-opacity="0.12"/>
<path d="M73.4871 82.8663C73.6517 83.3342 74.1331 83.548 74.6302 83.3692L81.1255 81.0333L80.9466 91.4528C80.9132 92.8416 82.4105 93.0369 82.8627 91.7558L88.7711 75.0239C88.8866 74.7033 88.9062 74.4298 88.8112 74.1597C88.6491 73.699 88.1645 73.476 87.6674 73.6547L81.172 75.9907L81.3509 65.5712C81.3871 64.1837 79.8878 63.9891 79.4381 65.2774L73.5272 82.0021C73.4143 82.3299 73.3953 82.6054 73.4871 82.8663Z" fill="#FFD843"/>
<path d="M123.373 71.8048L120.999 60.886L123.255 60.3787L125.235 69.4863L129.317 68.5684L129.71 70.3796L123.373 71.8048ZM137.674 65.2236L132.3 66.4319C132.461 66.9506 132.77 67.3455 133.226 67.6168C133.692 67.874 134.189 67.9432 134.717 67.8245C135.463 67.6567 136.194 67.2511 136.909 66.6078L137.711 67.6396C137.045 68.5614 136.091 69.1618 134.851 69.4406C133.519 69.7401 132.398 69.5943 131.487 69.0032C130.62 68.4503 130.05 67.5471 129.777 66.2937C129.51 65.0632 129.691 63.9551 130.319 62.9694C130.883 62.0708 131.721 61.4963 132.835 61.2458C134.075 60.967 135.13 61.1699 136.002 61.8544C136.754 62.4331 137.254 63.2917 137.501 64.4301L137.674 65.2236ZM131.831 64.8549L135.155 64.1074C134.853 62.9934 134.185 62.5525 133.151 62.7849C132.152 63.0095 131.712 63.6995 131.831 64.8549ZM143.477 61.06C142.834 60.8185 142.151 60.7791 141.428 60.9418C140.877 61.0657 140.653 61.3634 140.755 61.8349C140.85 62.2719 141.291 62.4984 142.077 62.5146C143.057 62.5355 143.745 62.6522 144.14 62.8648C144.713 63.1704 145.089 63.7371 145.269 64.5651C145.429 65.301 145.292 65.9469 144.859 66.5026C144.437 67.0558 143.785 67.4318 142.9 67.6306C141.649 67.912 140.515 67.7931 139.499 67.2737L140.029 65.8882C140.728 66.2254 141.497 66.2997 142.335 66.1113C142.668 66.0364 142.921 65.8952 143.092 65.6878C143.264 65.4803 143.321 65.2443 143.263 64.9798C143.158 64.4968 142.682 64.2723 141.834 64.3061C140.017 64.365 138.959 63.7103 138.662 62.3419C138.519 61.6864 138.664 61.0808 139.097 60.525C139.542 59.9667 140.166 59.5972 140.97 59.4164C142.061 59.1712 143.077 59.2744 144.018 59.7261L143.477 61.06ZM150.675 59.4413C150.033 59.1998 149.35 59.1604 148.626 59.323C148.075 59.447 147.851 59.7447 147.953 60.2162C148.048 60.6531 148.489 60.8797 149.275 60.8959C150.255 60.9167 150.943 61.0335 151.339 61.2461C151.911 61.5516 152.287 62.1184 152.467 62.9464C152.627 63.6823 152.49 64.3282 152.057 64.8839C151.636 65.4371 150.983 65.8131 150.099 66.0119C148.847 66.2933 147.713 66.1744 146.697 65.655L147.227 64.2694C147.927 64.6067 148.695 64.681 149.534 64.4925C149.867 64.4177 150.119 64.2765 150.291 64.069C150.462 63.8616 150.519 63.6256 150.462 63.3611C150.357 62.8781 149.88 62.6535 149.033 62.6874C147.215 62.7463 146.157 62.0916 145.86 60.7231C145.717 60.0677 145.863 59.4621 146.296 58.9063C146.74 58.348 147.365 57.9785 148.168 57.7977C149.259 57.5524 150.275 57.6557 151.216 58.1074L150.675 59.4413ZM165.441 58.9794L160.068 60.1878C160.229 60.7064 160.537 61.1014 160.994 61.3726C161.459 61.6299 161.956 61.6991 162.484 61.5803C163.23 61.4125 163.961 61.0069 164.676 60.3636L165.479 61.3954C164.812 62.3173 163.859 62.9176 162.619 63.1965C161.287 63.496 160.165 63.3501 159.254 62.759C158.387 62.2061 157.817 61.3029 157.545 60.0495C157.277 58.819 157.458 57.711 158.087 56.7253C158.65 55.8266 159.488 55.2521 160.602 55.0017C161.842 54.7228 162.898 54.9257 163.769 55.6102C164.521 56.1889 165.021 57.0475 165.269 58.186L165.441 58.9794ZM159.598 58.6107L162.922 57.8632C162.62 56.7492 161.952 56.3083 160.919 56.5407C159.92 56.7653 159.48 57.4553 159.598 58.6107ZM173.901 54.0737L169.44 55.0767L170.761 61.1485L168.591 61.6364L167.27 55.5647L166.048 55.8397L165.665 54.0802L166.888 53.8053L166.663 52.7703C166.335 51.2639 166.872 50.3532 168.273 50.0382C169.191 49.8316 170.114 49.9498 171.041 50.3926L170.497 51.7092C169.972 51.5135 169.549 51.4518 169.228 51.5241C168.872 51.6041 168.757 51.9316 168.882 52.5066L169.058 53.3173L173.518 52.3142L173.293 51.2793C172.966 49.7728 173.502 48.8621 174.903 48.5471C175.822 48.3406 176.745 48.4587 177.672 48.9015L177.127 50.2181C176.603 50.0224 176.18 49.9607 175.859 50.033C175.503 50.1131 175.387 50.4406 175.512 51.0155L175.688 51.8263L177.824 51.346L178.207 53.1054L176.071 53.5857L177.391 59.6574L175.221 60.1454L173.901 54.0737ZM182.851 49.9984C184.137 49.7092 185.235 49.9388 186.144 50.6872C186.906 51.3119 187.406 52.1705 187.644 53.2629C187.921 54.5394 187.704 55.6737 186.993 56.666C186.403 57.4982 185.62 58.024 184.644 58.2435C183.508 58.4991 182.462 58.2879 181.508 57.6099C180.651 56.9944 180.102 56.1289 179.859 55.0134C179.584 53.7485 179.746 52.6385 180.346 51.6836C180.891 50.8131 181.726 50.2514 182.851 49.9984ZM184.292 56.6221C185.405 56.3716 185.782 55.4184 185.422 53.7625C185.047 52.0376 184.303 51.3004 183.189 51.5508C182.075 51.8012 181.706 52.7889 182.081 54.5138C182.441 56.1698 183.178 56.8725 184.292 56.6221ZM190.463 48.5039L190.819 49.1474C190.882 48.8801 191.055 48.6241 191.339 48.3793C191.632 48.1204 191.95 47.9523 192.295 47.8748C193.328 47.6424 194.204 47.9582 194.921 48.822L193.313 50.233C192.839 49.8812 192.39 49.7531 191.965 49.8486C191.575 49.9364 191.332 50.2022 191.235 50.646L192.458 56.2693L190.322 56.7495L188.62 48.9183L190.463 48.5039ZM201.508 47.8474L199.27 48.3508L200.113 52.2319C200.238 52.8069 200.49 53.0518 200.869 52.9666C201.214 52.8891 201.612 52.6428 202.063 52.2276L203.027 53.1689C202.352 53.9962 201.52 54.5209 200.533 54.7429C199.155 55.0527 198.301 54.4487 197.971 52.9307L197.082 48.8427L195.997 49.0867L195.619 47.3445L196.721 47.0966L196.417 45.6994C196.924 45.2599 197.569 44.7107 198.353 44.0519L198.908 46.6048L201.13 46.1052L201.508 47.8474Z" fill="#252238"/>
<defs>
<filter id="filter0_d_3961_86202" x="0.0183187" y="0.0569758" width="244.488" height="159.921" filterUnits="userSpaceOnUse" color-interpolation-filters="sRGB">
<feFlood flood-opacity="0" result="BackgroundImageFix"/>
<feColorMatrix in="SourceAlpha" type="matrix" values="0 0 0 0 0 0 0 0 0 0 0 0 0 0 0 0 0 0 127 0" result="hardAlpha"/>
<feMorphology radius="5.36291" operator="dilate" in="SourceAlpha" result="effect1_dropShadow_3961_86202"/>
<feOffset dx="-10.087" dy="13.4073"/>
<feGaussianBlur stdDeviation="13.4073"/>
<feColorMatrix type="matrix" values="0 0 0 0 0.52549 0 0 0 0 0.658824 0 0 0 0 0.905882 0 0 0 0.12 0"/>
<feBlend mode="normal" in2="BackgroundImageFix" result="effect1_dropShadow_3961_86202"/>
<feBlend mode="normal" in="SourceGraphic" in2="effect1_dropShadow_3961_86202" result="shape"/>
</filter>
</defs>
</svg>
