<svg width="273" height="147" viewBox="0 0 273 147" fill="none" xmlns="http://www.w3.org/2000/svg">
<rect width="203.591" height="63.4665" rx="12.7202" transform="matrix(0.994868 -0.101217 -0.107128 -0.994249 49.1626 106.052)" fill="#88CE57"/>
<g filter="url(#filter0_d_3961_86236)">
<rect width="204.047" height="63.4665" rx="12.7202" transform="matrix(0.994868 -0.101217 -0.107128 -0.994249 48.7144 101.861)" fill="white"/>
</g>
<rect width="47.8473" height="45.0324" rx="9.38179" transform="matrix(0.994863 -0.10127 -0.107073 -0.994255 64.3213 90.8301)" fill="#88CE57" fill-opacity="0.12"/>
<g clip-path="url(#clip0_3961_86236)">
<path d="M85.9142 64.5893C85.4726 64.6349 85.1223 64.8249 84.8429 65.1702C84.5978 65.4734 84.4802 65.8039 84.4854 66.1764L86.6363 64.6751C86.4134 64.5906 86.1747 64.5624 85.9142 64.5893Z" fill="#88CE57"/>
<path d="M91.7951 63.9824C91.3535 64.0279 91.0031 64.218 90.7237 64.5633C90.4892 64.8535 90.3713 65.1688 90.3663 65.5218L92.5049 64.0636C92.2855 63.9826 92.0509 63.956 91.7951 63.9824Z" fill="#88CE57"/>
<path d="M99.2937 66.9763C100.2 66.2497 101.226 65.4261 101.104 64.2388C100.981 63.0515 99.8079 62.4551 98.7727 61.9289C98.4169 61.748 97.7672 61.4177 97.6051 61.226C97.5889 60.9651 97.8752 60.226 98.0154 59.8636C98.4268 58.8012 98.893 57.5972 98.2112 56.6569C97.5221 55.7065 96.2219 55.7757 95.0748 55.8366C94.665 55.8584 93.9154 55.8982 93.6769 55.8065C93.5384 55.5917 93.4244 54.8498 93.3619 54.4442C93.1872 53.3088 92.9892 52.022 91.9181 51.5415C91.6281 51.4114 91.3085 51.3633 90.9683 51.3984C90.2279 51.4748 89.5117 51.9392 88.819 52.3883C88.4061 52.6559 87.8454 53.0194 87.5671 53.0671C87.3456 52.9453 86.8915 52.3792 86.6427 52.0689C85.916 51.163 85.0924 50.1363 83.9052 50.2588C82.7179 50.3814 82.1214 51.5547 81.5952 52.5899C81.4148 52.945 81.0854 53.5928 80.8936 53.7565C80.6187 53.7688 79.9913 53.5258 79.53 53.3472C78.7603 53.0491 77.9642 52.7408 77.2238 52.8173C76.8837 52.8524 76.5806 52.9648 76.3234 53.1514C75.373 53.8405 75.4421 55.1406 75.503 56.2878C75.5249 56.6977 75.5646 57.4472 75.4729 57.6858C75.2582 57.8243 74.5164 57.9384 74.1106 58.0008C72.9752 58.1755 71.6885 58.3735 71.208 59.4445C70.7326 60.5043 71.4351 61.5877 72.0548 62.5437C72.266 62.8697 72.6973 63.5348 72.7346 63.7935C72.6153 64.0143 72.0466 64.4704 71.7353 64.7201C70.8294 65.4467 69.8027 66.2702 69.9253 67.4575C70.0478 68.6449 71.2211 69.2412 72.2564 69.7675C72.6121 69.9483 73.262 70.2786 73.4239 70.4704C73.4402 70.7313 73.1539 71.4705 73.0137 71.8327C72.6022 72.895 72.136 74.0991 72.8178 75.0394C73.5069 75.9898 74.8072 75.9205 75.9543 75.8596C76.3641 75.8379 77.1137 75.7981 77.3522 75.8898C77.4907 76.1046 77.6047 76.8464 77.6672 77.2521C77.8419 78.3875 78.0398 79.6743 79.111 80.1548C79.401 80.2849 79.7206 80.333 80.0607 80.2979C80.8012 80.2214 81.5174 79.7571 82.21 79.308C82.6229 79.0404 83.1835 78.6769 83.4618 78.6292C83.6834 78.751 84.1375 79.3171 84.3864 79.6275C85.1129 80.5333 85.9365 81.56 87.1239 81.4375C88.311 81.3149 88.9076 80.1416 89.4338 79.1064C89.6141 78.7513 89.9435 78.1035 90.1353 77.9398C90.4103 77.9275 91.0376 78.1705 91.4991 78.3491C92.2688 78.6471 93.0649 78.9554 93.8052 78.879C94.1454 78.8438 94.4483 78.7314 94.7057 78.5448C95.6561 77.8557 95.5869 76.5556 95.526 75.4084C95.5042 74.9986 95.4644 74.2491 95.5561 74.0106C95.7708 73.8721 96.5125 73.758 96.9183 73.6955C98.0537 73.5209 99.3405 73.3229 99.821 72.2518C100.296 71.192 99.594 70.1086 98.9742 69.1527C98.7629 68.8266 98.3317 68.1615 98.2943 67.9029C98.4138 67.682 98.9824 67.226 99.2937 66.9763ZM79.1592 61.7325C79.1952 62.0816 78.9414 62.3938 78.5924 62.4298L78.3773 62.452C78.044 62.4864 77.7881 62.6367 77.6167 62.8985C77.4353 63.1759 77.3555 63.4344 77.3795 63.6669L77.4235 64.0937L78.4078 63.9921C78.7569 63.956 79.0691 64.2098 79.1051 64.559L79.1206 64.7085C79.1566 65.0576 78.9028 65.3698 78.5537 65.4059L77.5695 65.5075L77.9654 69.3424C78.0014 69.6916 77.7475 70.0038 77.3985 70.0398L77.2265 70.0576C76.8774 70.0936 76.5652 69.8399 76.5292 69.4907L75.9595 63.9724C75.8782 63.1847 76.0478 62.5165 76.4637 61.9865C76.881 61.4543 77.4768 61.1447 78.2343 61.0665L78.4493 61.0443C78.7984 61.0083 79.1106 61.262 79.1467 61.6111L79.1592 61.7325ZM82.5401 64.8837C82.0596 64.9571 81.721 65.162 81.5052 65.51C81.2632 65.8998 81.166 66.3429 81.2159 66.8269L81.4386 68.9837C81.4746 69.3329 81.2208 69.6451 80.8717 69.6811L80.6998 69.6989C80.3509 69.7349 80.0388 69.4815 80.0025 69.1326L79.5219 64.5164C79.5044 64.3487 79.5543 64.1809 79.6607 64.05C79.7669 63.9191 79.9209 63.8358 80.0886 63.8185L80.2646 63.8003C80.552 63.7706 80.8144 63.9373 80.9183 64.1921C81.3338 63.8105 81.8034 63.572 82.3193 63.4817C82.4931 63.4506 82.6715 63.4943 82.8122 63.6006C82.9528 63.707 83.0429 63.8669 83.061 64.0423L83.0763 64.1902C83.1111 64.5274 82.8753 64.8325 82.5401 64.8837ZM89.0066 67.0222C88.8984 67.4004 88.7058 67.7602 88.4341 68.0915C87.9083 68.7384 87.2198 69.111 86.3894 69.1967C85.5593 69.2824 84.8094 69.0595 84.1606 68.5338C83.5116 68.008 83.1388 67.3184 83.0527 66.4843C82.967 65.654 83.191 64.904 83.7186 64.2549C84.2463 63.6058 84.9348 63.2333 85.7649 63.1476C86.5008 63.0717 87.1371 63.2088 87.71 63.5671C88.0787 63.7976 88.2872 64.0269 88.3994 64.1502C88.5223 64.2853 88.5811 64.4669 88.5607 64.6485C88.5404 64.8301 88.4429 64.9942 88.293 65.0988L85.0333 67.3742C85.0463 67.3855 85.0597 67.3966 85.0731 67.4076C85.4168 67.687 85.7987 67.8007 86.2405 67.7551C86.6825 67.7094 87.034 67.5192 87.315 67.1733C87.4474 67.0105 87.5434 66.835 87.6002 66.6518C87.6854 66.3769 87.9444 66.1936 88.2325 66.2051L88.4209 66.2126C88.6156 66.2204 88.7962 66.3171 88.9105 66.4751C89.0248 66.6329 89.0603 66.8345 89.0066 67.0222ZM94.8883 66.415C94.7801 66.7932 94.5875 67.153 94.3158 67.4843C93.79 68.1312 93.1014 68.5038 92.2711 68.5896C91.441 68.6753 90.691 68.4523 90.0423 67.9266C89.3933 67.4008 89.0205 66.7113 88.9344 65.8772C88.8487 65.0469 89.0727 64.2968 89.6003 63.6477C90.128 62.9986 90.8165 62.6261 91.6466 62.5404C92.3374 62.4691 92.9473 62.5975 93.5659 62.9445C93.9406 63.1547 94.13 63.3708 94.2431 63.5L94.2811 63.5429C94.4049 63.679 94.4635 63.862 94.4421 64.0445C94.4206 64.2272 94.3211 64.3916 94.1691 64.4953L90.9983 66.6596C90.9574 66.6875 90.9143 66.7099 90.8701 66.7272C90.897 66.7521 90.9253 66.7766 90.9547 66.8004C91.2984 67.0798 91.6803 67.1935 92.1221 67.1479C92.5641 67.1023 92.9156 66.912 93.1966 66.5662C93.3291 66.4033 93.425 66.2278 93.4818 66.0446C93.567 65.7697 93.8255 65.5864 94.114 65.5979L94.3025 65.6054C94.4973 65.6132 94.6778 65.71 94.7921 65.8679C94.9066 66.0257 94.9421 66.2274 94.8883 66.415Z" fill="#88CE57"/>
</g>
<path d="M124.594 65.6592L123.387 54.4514L130.721 53.7047L130.922 55.5638L125.908 56.0742L126.194 58.7301L130.375 58.3045L130.575 60.1636L126.394 60.5892L126.914 65.4229L124.594 65.6592ZM134.086 56.5664L134.375 57.253C134.466 56.993 134.668 56.7577 134.979 56.547C135.301 56.3233 135.64 56.1934 135.994 56.1573C137.057 56.0491 137.902 56.4702 138.53 57.4207L136.763 58.6388C136.325 58.2299 135.887 58.0477 135.45 58.0922C135.048 58.1331 134.775 58.3697 134.631 58.8021L135.253 64.5742L133.056 64.7978L132.19 56.7593L134.086 56.5664ZM147.08 60.0408L141.552 60.6035C141.658 61.1417 141.925 61.5739 142.355 61.9001C142.794 62.2134 143.286 62.3423 143.829 62.287C144.597 62.2089 145.375 61.8911 146.162 61.3335L146.857 62.4621C146.088 63.3041 145.066 63.7901 143.79 63.9199C142.42 64.0594 141.309 63.7787 140.458 63.0778C139.646 62.4204 139.172 61.4485 139.033 60.1619C138.897 58.8988 139.198 57.8121 139.936 56.9017C140.598 56.0705 141.503 55.5966 142.648 55.4799C143.924 55.3501 144.963 55.6799 145.764 56.4695C146.457 57.1388 146.866 58.0578 146.992 59.2264L147.08 60.0408ZM141.251 58.9695L144.67 58.6214C144.487 57.4706 143.863 56.9494 142.8 57.0576C141.773 57.1622 141.256 57.7995 141.251 58.9695ZM156.405 59.0916L150.878 59.6542C150.984 60.1924 151.251 60.6246 151.68 60.9509C152.12 61.2641 152.611 61.3931 153.155 61.3378C153.922 61.2596 154.7 60.9418 155.488 60.3843L156.183 61.5128C155.414 62.3549 154.391 62.8408 153.116 62.9706C151.746 63.1101 150.635 62.8294 149.783 62.1285C148.972 61.4712 148.497 60.4992 148.359 59.2126C148.223 57.9496 148.523 56.8628 149.261 55.9524C149.924 55.1212 150.828 54.6473 151.974 54.5307C153.249 54.4008 154.288 54.7307 155.089 55.5202C155.782 56.1895 156.192 57.1085 156.318 58.2771L156.405 59.0916ZM150.576 58.0202L153.996 57.6721C153.812 56.5214 153.189 56.0001 152.126 56.1083C151.098 56.2129 150.582 56.8502 150.576 58.0202ZM165.485 53.1553C166.808 53.0207 167.885 53.3823 168.718 54.2403C169.416 54.9569 169.826 55.8758 169.946 56.9972C170.087 58.3074 169.747 59.4161 168.925 60.3231C168.243 61.0847 167.4 61.5166 166.396 61.6188C165.227 61.7378 164.199 61.4008 163.314 60.6079C162.52 59.8892 162.062 58.9573 161.938 57.8123C161.799 56.5139 162.081 55.4231 162.786 54.5399C163.428 53.7347 164.327 53.2732 165.485 53.1553ZM166.217 59.9544C167.363 59.8378 167.844 58.9296 167.661 57.2298C167.47 55.4592 166.802 54.6323 165.656 54.7489C164.511 54.8655 164.033 55.8091 164.224 57.5797C164.407 59.2795 165.071 60.071 166.217 59.9544ZM170.97 54.6376L170.775 52.8316L172.033 52.7036L171.919 51.6412C171.752 50.0949 172.389 49.2484 173.83 49.1017C174.775 49.0055 175.689 49.2347 176.573 49.7891L175.884 51.0407C175.378 50.7819 174.96 50.6693 174.63 50.703C174.263 50.7402 174.112 51.054 174.176 51.6442L174.265 52.4763L176.462 52.2527L176.657 54.0587L174.46 54.2823L175.131 60.5148L172.899 60.7421L172.228 54.5096L170.97 54.6376ZM189.973 57.9658C189.224 58.8774 188.276 59.3915 187.13 59.5082C185.76 59.6476 184.627 59.3215 183.729 58.5298C182.95 57.8334 182.498 56.9069 182.373 55.7501C182.233 54.4517 182.568 53.3436 183.377 52.426C184.079 51.6266 184.991 51.1698 186.113 51.0556C187.353 50.9293 188.393 51.2173 189.233 51.9194L188.689 53.1919C188.029 52.722 187.345 52.5232 186.637 52.5953C185.975 52.6626 185.46 52.9776 185.091 53.5403C184.72 54.0911 184.578 54.7679 184.665 55.5706C184.745 56.3142 185.017 56.907 185.483 57.3489C185.959 57.7777 186.522 57.9591 187.171 57.893C187.951 57.8136 188.587 57.4565 189.08 56.8216L189.973 57.9658ZM190.679 48.6218L192.779 47.1728L193.247 51.5108C193.396 51.1256 193.752 50.7731 194.315 50.4533C194.687 50.2484 195.044 50.1285 195.387 50.0936C196.414 49.989 197.189 50.1966 197.71 50.7163C198.243 51.223 198.575 52.096 198.709 53.3354L199.218 58.0629L196.986 58.2902L196.486 53.6512C196.362 52.4944 195.803 51.9665 194.811 52.0675C194.091 52.1409 193.616 52.392 193.388 52.821L194.009 58.5931L191.777 58.8204L190.679 48.6218ZM208.019 57.167L206.23 57.3492L205.971 56.6058C205.261 57.3344 204.505 57.7396 203.702 57.8213C201.918 58.0029 200.933 57.2261 200.746 55.4909C200.653 54.6292 200.953 53.9185 201.645 53.3588C202.347 52.7861 203.437 52.4246 204.913 52.2743L205.285 52.2364L205.282 52.201C205.227 51.6934 205.083 51.356 204.85 51.1888C204.617 51.0216 204.223 50.9662 203.668 51.0227C202.888 51.1021 202.201 51.4227 201.604 51.9846C201.35 51.6167 201.108 51.2535 200.878 50.895C201.495 50.3071 202.043 49.8994 202.52 49.6718C203.007 49.4313 203.599 49.2755 204.296 49.2046C206.186 49.0122 207.258 50.0964 207.512 52.4572L208.019 57.167ZM205.361 53.607L205.096 53.634C204.422 53.7026 203.892 53.8759 203.504 54.1541C203.116 54.4322 202.943 54.7661 202.985 55.1556C203.064 55.8874 203.422 56.2209 204.06 56.156C204.449 56.1163 204.78 55.9693 205.051 55.715C205.322 55.4606 205.469 55.1593 205.491 54.811L205.361 53.607ZM211.458 48.6904L211.747 49.377C211.838 49.1171 212.04 48.8817 212.351 48.671C212.674 48.4473 213.012 48.3174 213.366 48.2813C214.429 48.1731 215.275 48.5942 215.902 49.5447L214.135 50.7628C213.697 50.3539 213.259 50.1717 212.822 50.2162C212.421 50.2571 212.148 50.4937 212.003 50.9261L212.625 56.6982L210.428 56.9218L209.562 48.8833L211.458 48.6904ZM222.467 54.7118C222.021 55.5568 221.314 56.0286 220.345 56.1271C219.164 56.2474 218.203 55.9215 217.464 55.1496C216.832 54.4978 216.458 53.629 216.341 52.543C216.174 50.9967 216.495 49.7588 217.302 48.8294C217.92 48.134 218.695 47.7389 219.628 47.6439C220.373 47.5681 221.024 47.6868 221.583 47.9998C221.951 48.201 222.142 48.3606 222.154 48.4787L222.238 47.593L223.956 47.4181L224.733 54.6244C224.879 55.9819 224.655 57.0608 224.06 57.8612C223.476 58.6485 222.57 59.1047 221.342 59.2298C220.066 59.3596 218.916 59.0471 217.892 58.2922L218.336 57.1013C219.108 57.5001 219.942 57.6538 220.84 57.5625C222.115 57.4326 222.658 56.4824 222.467 54.7118ZM222 50.3739C221.913 50.0127 221.697 49.7186 221.35 49.4913C221.014 49.2511 220.656 49.1502 220.278 49.1887C219.688 49.2488 219.241 49.533 218.937 50.0412C218.634 50.5495 218.525 51.2049 218.612 52.0076C218.801 53.7664 219.475 54.5868 220.632 54.469C221.116 54.4197 221.516 54.1941 221.831 53.7921C222.145 53.3783 222.274 52.9176 222.219 52.41L222 50.3739ZM234.314 51.161L228.787 51.7236C228.892 52.2618 229.16 52.694 229.589 53.0203C230.029 53.3335 230.52 53.4625 231.063 53.4072C231.831 53.329 232.609 53.0112 233.397 52.4537L234.091 53.5823C233.322 54.4243 232.3 54.9102 231.024 55.0401C229.654 55.1795 228.543 54.8988 227.692 54.1979C226.881 53.5406 226.406 52.5686 226.267 51.282C226.131 50.019 226.432 48.9322 227.17 48.0218C227.833 47.1906 228.737 46.7167 229.883 46.6001C231.158 46.4702 232.197 46.8001 232.998 47.5896C233.691 48.2589 234.101 49.1779 234.226 50.3465L234.314 51.161ZM228.485 50.0896L231.905 49.7416C231.721 48.5908 231.098 48.0695 230.035 48.1777C229.007 48.2823 228.491 48.9196 228.485 50.0896Z" fill="#252238"/>
<defs>
<filter id="filter0_d_3961_86236" x="0.565589" y="0.392019" width="272.145" height="146.236" filterUnits="userSpaceOnUse" color-interpolation-filters="sRGB">
<feFlood flood-opacity="0" result="BackgroundImageFix"/>
<feColorMatrix in="SourceAlpha" type="matrix" values="0 0 0 0 0 0 0 0 0 0 0 0 0 0 0 0 0 0 127 0" result="hardAlpha"/>
<feMorphology radius="5.41032" operator="dilate" in="SourceAlpha" result="effect1_dropShadow_3961_86236"/>
<feOffset dx="-10.1761" dy="13.5258"/>
<feGaussianBlur stdDeviation="13.5258"/>
<feColorMatrix type="matrix" values="0 0 0 0 0.52549 0 0 0 0 0.658824 0 0 0 0 0.905882 0 0 0 0.12 0"/>
<feBlend mode="normal" in2="BackgroundImageFix" result="effect1_dropShadow_3961_86236"/>
<feBlend mode="normal" in="SourceGraphic" in2="effect1_dropShadow_3961_86236" result="shape"/>
</filter>
<clipPath id="clip0_3961_86236">
<rect width="31.3444" height="31.3444" fill="white" transform="translate(68.3169 51.8672) rotate(-5.89393)"/>
</clipPath>
</defs>
</svg>
