<svg width="165" height="87" viewBox="0 0 165 87" fill="none" xmlns="http://www.w3.org/2000/svg">
<rect width="130.383" height="32.0323" rx="6.40558" transform="matrix(0.981759 0.19013 0.192526 -0.981292 20.0425 42.0303)" fill="#10BBFD"/>
<g filter="url(#filter0_d_3961_86148)">
<rect width="130.37" height="32.0323" rx="6.40558" transform="matrix(0.981759 0.19013 0.192526 -0.981292 20.4126 40.1455)" fill="white"/>
</g>
<rect width="24.0947" height="22.6774" rx="4.72446" transform="matrix(0.981759 0.19013 0.192526 -0.981292 29.6177 36.9678)" fill="#10BBFD" fill-opacity="0.12"/>
<path d="M34.8615 26.8903C34.5179 29.3811 36.0001 31.2748 38.5575 31.6277C41.0763 31.9751 42.9717 30.717 43.2803 28.4803C43.4096 27.5432 43.1882 26.7432 42.6958 26.1932C42.4588 25.9319 42.309 25.8349 42.0545 25.7998C41.704 25.7514 41.4245 25.9382 41.3807 26.2555C41.3308 26.6171 41.5019 26.7228 41.8142 27.102C42.043 27.3934 42.1368 27.805 42.0697 28.2917C41.8609 29.805 40.5365 30.6505 38.748 30.4037C36.9128 30.1506 35.8544 28.8135 36.0971 27.0539C36.2394 26.0228 36.9033 25.1338 37.8483 24.7286L37.3727 23.5785C36.0184 24.1556 35.0643 25.4203 34.8615 26.8903ZM37.1462 23.6053C36.9332 25.1497 37.8602 26.3879 39.5343 26.6188C39.866 26.6646 40.1871 26.4225 40.233 26.0895C40.2797 25.7511 40.0362 25.4311 39.7044 25.3853C38.7648 25.2557 38.268 24.5942 38.3809 23.7756C38.5054 22.8735 39.3369 22.3428 40.3425 22.4815C40.844 22.5507 41.3461 22.7907 41.7775 23.2045L42.6391 22.298C42.0198 21.7011 41.2686 21.3523 40.5205 21.2491C38.852 21.0189 37.3698 21.9845 37.1462 23.6053ZM40.7698 23.8927C40.7044 24.2865 40.9326 24.5921 41.2856 24.6407C41.6264 24.6878 41.9155 24.4943 41.9838 24.115C42.1991 22.89 43.2121 22.1198 44.4629 22.2924C45.2142 22.396 45.8202 22.8856 46.0046 23.5119C46.0566 23.6433 46.1575 23.6738 46.3182 23.656C46.5361 23.6286 46.7794 23.6307 47.0107 23.6626C48.1838 23.8368 49.1525 24.8734 48.9621 26.2537C48.5367 29.3375 44.206 28.373 43.7784 31.4722C43.5715 32.9725 44.6102 34.0823 46.1685 34.2973C46.3055 34.3162 46.4553 34.3313 46.6028 34.3461C46.6252 35.5366 47.2306 36.7101 48.3858 36.8695C50.0692 37.1017 51.2303 35.2509 51.5185 33.1619C51.6464 32.2349 51.677 31.6245 51.6904 31.0408L50.4135 31.2114C50.399 31.7765 50.3869 32.3019 50.2936 32.9781C50.067 34.6209 49.3011 35.7375 48.5562 35.6347C47.7966 35.5299 47.6045 34.455 47.7264 33.5715C47.7407 33.4678 47.6821 33.3854 47.5534 33.3732C47.3898 33.3506 47.1703 33.3203 46.9764 33.2936C45.6888 33.1159 44.9112 32.5851 45.0461 31.6072C45.3685 29.2702 49.6563 30.3332 50.1956 26.4239C50.4831 24.34 49.1326 22.6972 47.328 22.4482C47.2045 22.4312 47.0311 22.4264 46.8524 22.4419C46.3874 21.711 45.5767 21.1958 44.6388 21.0664C42.7015 20.7992 41.1039 21.9641 40.7698 23.8927ZM47.7656 31.6017C47.7183 31.9444 47.955 32.2295 48.2966 32.3018C50.6207 32.7815 52.3857 31.6107 52.693 29.3837C52.9451 27.5562 51.8192 25.9725 49.8869 25.4567L49.517 26.6693C50.8679 26.837 51.6453 27.8571 51.4582 29.2134C51.2553 30.6843 50.0653 31.427 48.4756 31.0751C48.1347 30.9973 47.8128 31.2596 47.7656 31.6017ZM44.2849 31.9032C43.8649 32.0024 43.3851 32.0163 42.9393 31.9547C41.9137 31.8133 40.927 31.2782 40.5829 30.5974L39.3708 31.2862C39.9803 32.2259 41.1575 32.9647 42.6345 33.1684C43.2259 33.25 43.887 33.2476 44.5462 33.1383L44.2849 31.9032ZM42.6327 26.9532L42.8877 28.1856C44.679 28.1052 45.6536 27.1373 45.8657 25.5023C45.9074 25.1644 45.6598 24.8482 45.3213 24.8015C44.9841 24.755 44.6703 24.9937 44.631 25.332C44.4946 26.4269 43.9257 26.9668 42.6327 26.9532Z" fill="#10BBFD"/>
<path d="M63.9084 33.5776L64.9979 28.0248C65.4589 28.0349 66.0064 28.1013 66.6403 28.2241C67.374 28.3662 67.8859 28.645 68.176 29.0604C68.4037 29.3907 68.4732 29.7817 68.3845 30.2335C68.3304 30.5092 68.1665 30.7393 67.8927 30.9238C67.62 31.1024 67.3428 31.1644 67.0611 31.1098L67.0594 31.1186C67.4387 31.2347 67.7146 31.4434 67.887 31.7448C68.0652 32.0472 68.1158 32.395 68.0387 32.7881C67.9305 33.3395 67.6158 33.717 67.0945 33.9206C66.64 34.0944 66.0753 34.116 65.4003 33.9853C64.8134 33.8716 64.3161 33.7357 63.9084 33.5776ZM65.9803 29.1193L65.7282 30.4041L66.3797 30.5303C66.8728 30.6258 67.1602 30.4653 67.2419 30.0487C67.3328 29.5853 67.0801 29.2897 66.4837 29.162L66.4573 29.1569C66.3106 29.1285 66.1516 29.1159 65.9803 29.1193ZM65.5469 31.3281L65.231 32.9385C65.3685 33.0139 65.5723 33.0777 65.8423 33.13C66.4116 33.2403 66.7452 33.0461 66.843 32.5474C66.9651 31.9255 66.7326 31.5577 66.1456 31.4441L65.5469 31.3281ZM72.7036 33.591L69.9566 33.059C69.9272 33.3334 69.9914 33.5803 70.1495 33.7997C70.3145 34.0144 70.532 34.1478 70.802 34.2001C71.1835 34.274 71.6057 34.234 72.0684 34.08L72.2345 34.7242C71.7382 35.0178 71.1731 35.1032 70.5392 34.9805C69.8584 34.8486 69.3652 34.5521 69.0596 34.0911C68.7671 33.6568 68.6835 33.12 68.809 32.4805C68.9322 31.8528 69.2395 31.3734 69.7309 31.0423C70.1743 30.7384 70.6807 30.6416 71.2501 30.7519C71.884 30.8746 72.335 31.1843 72.6031 31.6807C72.837 32.1036 72.8969 32.6054 72.783 33.1862L72.7036 33.591ZM70.0556 32.2287L71.7548 32.5578C71.8383 31.9771 71.6159 31.6357 71.0876 31.5334C70.577 31.4345 70.233 31.6663 70.0556 32.2287ZM76.4288 32.787L75.2842 32.5653L74.8958 34.5453C74.8382 34.8387 74.9063 35.0041 75.1 35.0416C75.2761 35.0757 75.5111 35.0421 75.8052 34.9407L76.0645 35.5755C75.5833 35.8233 75.0903 35.8984 74.5855 35.8006C73.8812 35.6642 73.605 35.2088 73.7569 34.4344L74.1661 32.3488L73.6114 32.2414L73.7858 31.3526L74.3493 31.4617L74.4891 30.7489C74.8137 30.6473 75.225 30.523 75.7229 30.3758L75.4674 31.6782L76.6032 31.8982L76.4288 32.787ZM79.9281 33.4647L78.7836 33.243L78.3951 35.223C78.3376 35.5164 78.4056 35.6818 78.5993 35.7193C78.7754 35.7534 79.0105 35.7198 79.3045 35.6184L79.5638 36.2532C79.0826 36.501 78.5896 36.5761 78.0849 36.4783C77.3805 36.3419 77.1043 35.8865 77.2562 35.1121L77.6654 33.0265L77.1108 32.9191L77.2851 32.0303L77.8486 32.1394L77.9885 31.4266C78.313 31.325 78.7243 31.2007 79.2223 31.0535L78.9668 32.3559L80.1025 32.5759L79.9281 33.4647ZM84.2505 35.8272L81.5036 35.2952C81.4741 35.5697 81.5384 35.8166 81.6964 36.0359C81.8615 36.2506 82.079 36.384 82.349 36.4363C82.7305 36.5102 83.1526 36.4702 83.6154 36.3162L83.7815 36.9604C83.2852 37.254 82.7201 37.3394 82.0862 37.2167C81.4053 37.0848 80.9121 36.7884 80.6066 36.3273C80.314 35.8931 80.2305 35.3562 80.356 34.7167C80.4791 34.089 80.7864 33.6096 81.2779 33.2785C81.7213 32.9746 82.2277 32.8778 82.797 32.9881C83.4309 33.1109 83.882 33.4205 84.1501 33.9169C84.384 34.3398 84.4439 34.8416 84.3299 35.4224L84.2505 35.8272ZM81.6025 34.4649L83.3018 34.794C83.3852 34.2134 83.1628 33.8719 82.6346 33.7696C82.1239 33.6707 81.7799 33.9025 81.6025 34.4649ZM86.5918 33.8326L86.6284 34.2051C86.7112 34.0932 86.8435 34.0092 87.0251 33.9531C87.2137 33.8922 87.3961 33.8788 87.5722 33.9129C88.1004 34.0152 88.4447 34.3407 88.6052 34.8893L87.5718 35.219C87.4218 34.9586 87.2383 34.8073 87.0211 34.7652C86.8215 34.7266 86.6546 34.8009 86.5204 34.988L85.9576 37.8568L84.8659 37.6454L85.6497 33.6502L86.5918 33.8326ZM93.3481 38.8131C92.9809 39.1317 92.542 39.2416 92.0314 39.1427C91.5266 39.0449 91.191 38.846 91.0244 38.5458C90.8649 38.2408 90.8456 37.7804 90.9665 37.1644L91.4361 34.7708L92.5278 34.9822L92.1152 37.0854C92.0369 37.4843 92.0345 37.7762 92.1079 37.9609C92.1825 38.1398 92.3489 38.2542 92.6072 38.3042C92.7187 38.3258 92.8506 38.3209 93.003 38.2895C93.1554 38.2581 93.2526 38.213 93.2946 38.1542L93.8661 35.2414L94.9754 35.4562L94.1915 39.4514L93.364 39.2911L93.3569 38.8148L93.3481 38.8131ZM97.1717 36.2835C97.3155 36.1713 97.5141 36.091 97.7673 36.0426C98.0216 35.9883 98.2544 35.9816 98.4657 36.0225C98.9705 36.1203 99.3074 36.3286 99.4763 36.6476C99.6511 36.9676 99.6781 37.4357 99.5573 38.0517L99.0963 40.4013L97.9781 40.1847L98.4305 37.8791C98.5433 37.3042 98.3444 36.9673 97.8337 36.8684C97.7046 36.8434 97.5609 36.846 97.4026 36.8762C97.2456 36.9006 97.1337 36.9429 97.067 37.0031L96.499 39.8983L95.3897 39.6835L96.1735 35.6882L97.1156 35.8707C97.115 36.0289 97.119 36.1636 97.1277 36.2749L97.1717 36.2835ZM103.1 41.1767L103.024 40.7236C102.901 40.8579 102.723 40.9545 102.492 41.0133C102.262 41.0721 102.035 41.0799 101.812 41.0367C101.183 40.9151 100.746 40.6142 100.499 40.134C100.291 39.7344 100.241 39.2619 100.348 38.7163C100.498 37.9477 100.838 37.3984 101.366 37.0682C101.761 36.8221 102.194 36.7445 102.663 36.8354C103.068 36.9139 103.387 37.0913 103.619 37.3676L103.869 36.0916L105.099 35.6904L103.989 41.3489L103.1 41.1767ZM103.179 39.6116L103.398 38.494C103.395 38.2925 103.332 38.1159 103.209 37.9643C103.094 37.8079 102.939 37.711 102.746 37.6735C102.446 37.6155 102.185 37.6868 101.963 37.8874C101.741 38.0879 101.591 38.3877 101.513 38.7866C101.341 39.6608 101.54 40.153 102.11 40.2632C102.321 40.3041 102.534 40.2601 102.748 40.131C102.963 39.9962 103.107 39.823 103.179 39.6116ZM109.202 40.6593L106.455 40.1273C106.425 40.4017 106.489 40.6486 106.647 40.868C106.813 41.0827 107.03 41.2161 107.3 41.2684C107.682 41.3423 108.104 41.3023 108.566 41.1483L108.733 41.7925C108.236 42.0861 107.671 42.1715 107.037 42.0488C106.356 41.9169 105.863 41.6204 105.558 41.1593C105.265 40.7251 105.182 40.1883 105.307 39.5488C105.43 38.9211 105.737 38.4417 106.229 38.1106C106.672 37.8067 107.179 37.7099 107.748 37.8202C108.382 37.9429 108.833 38.2526 109.101 38.749C109.335 39.1719 109.395 39.6737 109.281 40.2545L109.202 40.6593ZM106.554 39.297L108.253 39.6261C108.336 39.0454 108.114 38.704 107.586 38.6017C107.075 38.5028 106.731 38.7346 106.554 39.297ZM111.543 38.6647L111.579 39.0371C111.662 38.9253 111.795 38.8413 111.976 38.7851C112.165 38.7242 112.347 38.7108 112.523 38.7449C113.051 38.8472 113.396 39.1727 113.556 39.7214L112.523 40.0511C112.373 39.7906 112.189 39.6394 111.972 39.5973C111.773 39.5587 111.606 39.6329 111.472 39.8201L110.909 42.6889L109.817 42.4775L110.601 38.4822L111.543 38.6647ZM116.286 40.5881C116.036 40.3447 115.725 40.1872 115.355 40.1155C115.074 40.061 114.909 40.154 114.862 40.3945C114.818 40.6174 114.978 40.8128 115.341 40.9805C115.794 41.1899 116.09 41.3845 116.232 41.5641C116.437 41.823 116.498 42.1637 116.415 42.5861C116.342 42.9616 116.148 43.2346 115.834 43.4053C115.526 43.5771 115.146 43.6192 114.694 43.5317C114.055 43.4078 113.55 43.1213 113.181 42.6723L113.707 42.1348C113.965 42.4344 114.309 42.6257 114.737 42.7087C114.907 42.7417 115.053 42.7273 115.175 42.6656C115.297 42.604 115.371 42.5057 115.397 42.3707C115.446 42.1243 115.269 41.9226 114.867 41.7657C114.008 41.4227 113.648 40.9022 113.785 40.2041C113.85 39.8697 114.04 39.6172 114.354 39.4465C114.673 39.277 115.038 39.232 115.449 39.3116C116.007 39.4196 116.459 39.6747 116.807 40.0769L116.286 40.5881ZM120.235 41.2706L119.09 41.049L118.702 43.029C118.644 43.3223 118.713 43.4877 118.906 43.5252C119.082 43.5593 119.317 43.5257 119.611 43.4243L119.871 44.0591C119.389 44.307 118.897 44.382 118.392 44.2842C117.687 44.1478 117.411 43.6924 117.563 42.918L117.972 40.8324L117.418 40.725L117.592 39.8362L118.156 39.9453L118.295 39.2325C118.62 39.1309 119.031 39.0066 119.529 38.8594L119.274 40.1619L120.409 40.3818L120.235 41.2706ZM123.847 45.1945L122.958 45.0223L122.944 44.6269C122.493 44.8745 122.068 44.9597 121.669 44.8824C120.783 44.7108 120.424 44.1937 120.593 43.3313C120.677 42.9031 120.928 42.6045 121.345 42.4355C121.769 42.2619 122.348 42.2461 123.081 42.3882L123.266 42.424L123.27 42.4064C123.319 42.1541 123.3 41.9708 123.213 41.8565C123.126 41.7422 122.944 41.6583 122.669 41.6049C122.281 41.5299 121.902 41.5843 121.531 41.7682C121.463 41.5541 121.401 41.3441 121.344 41.1382C121.729 40.9448 122.053 40.828 122.317 40.7878C122.588 40.7428 122.896 40.7538 123.243 40.8209C124.182 41.0028 124.536 41.6804 124.306 42.8537L123.847 45.1945ZM123.098 43.0948L122.966 43.0692C122.632 43.0044 122.35 43.0108 122.122 43.0883C121.893 43.1659 121.76 43.3015 121.722 43.4951C121.651 43.8588 121.773 44.0714 122.09 44.1327C122.284 44.1703 122.465 44.1475 122.634 44.0644C122.802 43.9814 122.918 43.8576 122.981 43.6932L123.098 43.0948ZM126.826 42.0263C126.97 41.9141 127.168 41.8338 127.421 41.7854C127.676 41.7312 127.909 41.7245 128.12 41.7654C128.625 41.8632 128.961 42.0715 129.13 42.3904C129.305 42.7105 129.332 43.1785 129.211 43.7946L128.75 46.1442L127.632 45.9276L128.085 43.622C128.197 43.0471 127.998 42.7102 127.488 42.6113C127.359 42.5863 127.215 42.5889 127.057 42.6191C126.9 42.6435 126.788 42.6858 126.721 42.746L126.153 45.6412L125.044 45.4263L125.828 41.4311L126.77 41.6136C126.769 41.7718 126.773 41.9065 126.782 42.0178L126.826 42.0263ZM132.754 46.9195L132.679 46.4665C132.555 46.6008 132.377 46.6974 132.146 46.7562C131.916 46.815 131.689 46.8228 131.466 46.7796C130.838 46.658 130.4 46.3571 130.153 45.8769C129.945 45.4773 129.895 45.0048 130.002 44.4591C130.153 43.6906 130.492 43.1413 131.02 42.8111C131.415 42.565 131.848 42.4874 132.317 42.5783C132.722 42.6567 133.041 42.8341 133.273 43.1105L133.523 41.8345L134.754 41.4333L133.643 47.0918L132.754 46.9195ZM132.833 45.3545L133.052 44.2369C133.049 44.0353 132.986 43.8588 132.864 43.7071C132.748 43.5508 132.593 43.4539 132.4 43.4164C132.1 43.3584 131.84 43.4297 131.617 43.6302C131.395 43.8308 131.245 44.1306 131.167 44.5295C130.995 45.4036 131.194 45.8958 131.764 46.0061C131.975 46.047 132.188 46.003 132.402 45.8739C132.617 45.739 132.761 45.5659 132.833 45.3545ZM136.695 43.5357L135.911 47.5309L134.793 47.3143L135.577 43.3191L136.695 43.5357ZM135.645 42.2727C135.682 42.085 135.778 41.9362 135.933 41.8263C136.096 41.7116 136.268 41.6719 136.45 41.7071C136.644 41.7446 136.795 41.8439 136.904 42.005C137.018 42.1672 137.056 42.3451 137.018 42.5387C136.978 42.7441 136.878 42.8982 136.717 43.0011C136.563 43.1052 136.383 43.1373 136.178 43.0975C135.984 43.06 135.835 42.9642 135.731 42.8102C135.635 42.6513 135.606 42.4722 135.645 42.2727ZM138.837 44.3525C138.981 44.2403 139.179 44.16 139.433 44.1116C139.687 44.0573 139.92 44.0506 140.131 44.0915C140.636 44.1893 140.973 44.3976 141.142 44.7166C141.316 45.0366 141.343 45.5047 141.223 46.1207L140.762 48.4703L139.643 48.2537L140.096 45.9481C140.209 45.3732 140.01 45.0363 139.499 44.9374C139.37 44.9124 139.226 44.915 139.068 44.9453C138.911 44.9696 138.799 45.0119 138.732 45.0721L138.164 47.9673L137.055 47.7525L137.839 43.7572L138.781 43.9397C138.78 44.0979 138.784 44.2327 138.793 44.3439L138.837 44.3525ZM144.543 48.7003C144.202 49.0422 143.791 49.1666 143.31 49.0733C142.723 48.9597 142.309 48.6633 142.068 48.1843C141.861 47.7788 141.81 47.3063 141.916 46.7665C142.067 45.998 142.406 45.4486 142.934 45.1185C143.335 44.8735 143.768 44.7959 144.232 44.8857C144.602 44.9573 144.898 45.109 145.12 45.3409C145.267 45.4912 145.335 45.5957 145.324 45.6544L145.496 45.2402L146.35 45.4056L145.648 48.9872C145.515 49.6619 145.246 50.1487 144.84 50.4476C144.441 50.7419 143.937 50.8299 143.326 50.7116C142.692 50.5889 142.185 50.2714 141.804 49.7592L142.196 49.2506C142.508 49.5546 142.887 49.7498 143.334 49.8361C143.967 49.9589 144.371 49.5803 144.543 48.7003ZM144.966 46.5443C144.979 46.3579 144.918 46.1848 144.785 46.025C144.659 45.8605 144.502 45.7601 144.314 45.7237C144.021 45.6669 143.763 45.7388 143.541 45.9393C143.319 46.1399 143.168 46.4396 143.09 46.8386C142.919 47.7127 143.12 48.2055 143.696 48.3169C143.936 48.3635 144.162 48.3129 144.374 48.1651C144.587 48.0115 144.718 47.8086 144.768 47.5563L144.966 46.5443Z" fill="#252238"/>
<defs>
<filter id="filter0_d_3961_86148" x="0.0533693" y="0.27671" width="164.629" height="86.7146" filterUnits="userSpaceOnUse" color-interpolation-filters="sRGB">
<feFlood flood-opacity="0" result="BackgroundImageFix"/>
<feColorMatrix in="SourceAlpha" type="matrix" values="0 0 0 0 0 0 0 0 0 0 0 0 0 0 0 0 0 0 127 0" result="hardAlpha"/>
<feMorphology radius="2.72451" operator="dilate" in="SourceAlpha" result="effect1_dropShadow_3961_86148"/>
<feOffset dx="-5.12446" dy="6.81128"/>
<feGaussianBlur stdDeviation="6.81128"/>
<feColorMatrix type="matrix" values="0 0 0 0 0.52549 0 0 0 0 0.658824 0 0 0 0 0.905882 0 0 0 0.12 0"/>
<feBlend mode="normal" in2="BackgroundImageFix" result="effect1_dropShadow_3961_86148"/>
<feBlend mode="normal" in="SourceGraphic" in2="effect1_dropShadow_3961_86148" result="shape"/>
</filter>
</defs>
</svg>
