<svg width="40" height="39" viewBox="0 0 40 39" fill="none" xmlns="http://www.w3.org/2000/svg">
<path d="M5.54983 28.2166C5.70447 27.7987 6.29553 27.7987 6.45017 28.2166L7.54395 31.1725C7.59257 31.3038 7.69616 31.4074 7.82754 31.4561L10.7834 32.5498C11.2013 32.7045 11.2013 33.2955 10.7834 33.4502L7.82754 34.5439C7.69616 34.5926 7.59257 34.6962 7.54395 34.8275L6.45017 37.7834C6.29553 38.2013 5.70447 38.2013 5.54983 37.7834L4.45605 34.8275C4.40743 34.6962 4.30384 34.5926 4.17246 34.5439L1.21656 33.4502C0.798667 33.2955 0.798666 32.7045 1.21656 32.5498L4.17246 31.4561C4.30384 31.4074 4.40743 31.3038 4.45605 31.1725L5.54983 28.2166Z" fill="#1DB9FB"/>
<path d="M22.7996 3.24417C23.2119 2.12977 24.7881 2.12978 25.2005 3.24417L28.1172 11.1266C28.2468 11.4769 28.5231 11.7532 28.8734 11.8828L36.7558 14.7996C37.8702 15.2119 37.8702 16.7881 36.7558 17.2005L28.8734 20.1172C28.5231 20.2468 28.2468 20.5231 28.1172 20.8734L25.2004 28.7558C24.7881 29.8702 23.2119 29.8702 22.7996 28.7558L19.8828 20.8734C19.7532 20.5231 19.4769 20.2468 19.1266 20.1172L11.2442 17.2004C10.1298 16.7881 10.1298 15.2119 11.2442 14.7996L19.1266 11.8828C19.4769 11.7532 19.7532 11.4769 19.8828 11.1266L22.7996 3.24417Z" fill="#279BF9"/>
</svg>
