<svg width="48" height="47" viewBox="0 0 48 47" fill="none" xmlns="http://www.w3.org/2000/svg">
<rect width="32.7896" height="31.0181" rx="6.42562" transform="matrix(-0.876381 0.481636 -0.491432 -0.870925 46.0801 30.6348)" fill="#88CE57"/>
<g filter="url(#filter0_i_1430_6756)">
<rect width="32.9598" height="31.0201" rx="6.42562" transform="matrix(-0.876388 0.481622 -0.491446 -0.870918 46.3203 27.4023)" fill="white"/>
</g>
<rect width="15.3422" height="15.3476" transform="matrix(0.915467 -0.404799 0.413727 0.909347 14.7632 18.5518)" fill="white"/>
<path d="M20.4322 19.8452L21.5776 19.3387L20.9647 17.9917C20.7212 17.4565 20.8638 17.0297 21.4318 16.7786L23.8823 15.6951L25.1468 18.4745C25.4738 19.1931 26.0249 19.3984 26.7435 19.0806L29.3227 17.9401L31.5104 22.7485C31.756 23.2884 31.6065 23.7125 31.0385 23.9637L29.9436 24.4478L30.4612 25.5855L31.6561 25.0572C32.9046 24.5051 33.2561 23.5614 32.688 22.3127L30.594 17.7102C30.2466 16.9467 29.865 16.53 29.1895 16.2639L24.9333 14.6064C24.2937 14.3549 23.689 14.4139 23.0161 14.7115L20.819 15.6829C19.5705 16.235 19.2185 17.1777 19.7871 18.4274L20.4322 19.8452ZM26.0376 17.9082L25.0547 15.7478L28.5925 17.1222L26.4511 18.0691C26.2507 18.1577 26.1282 18.1073 26.0376 17.9082Z" fill="#88CE57"/>
<path d="M21.8818 30.6689C22.4526 31.9233 23.3949 32.288 24.6472 31.7343L30.1195 29.3146C31.3718 28.7609 31.7196 27.8187 31.1514 26.5701L29.1179 22.1005C28.764 21.3227 28.4992 21.0027 27.7837 20.7232L23.1609 18.9282C22.4732 18.6593 22.0231 18.7284 21.3189 19.0398L19.2814 19.9407C18.034 20.4923 17.6788 21.4308 18.2495 22.6853L21.8818 30.6689ZM22.9951 30.0917L19.4249 22.2448C19.1836 21.7143 19.3262 21.2876 19.8953 21.0359L21.6919 20.2415L23.1382 23.4205C23.5168 24.2525 24.1154 24.475 24.9424 24.1093L28.033 22.7428L29.9728 27.0063C30.2185 27.5462 30.0689 27.9703 29.5056 28.2194L24.221 30.5562C23.6567 30.8057 23.2407 30.6316 22.9951 30.0917ZM24.5991 23.0559C24.3579 23.1626 24.2088 23.1068 24.0993 22.8662L22.8035 20.0181L27.4174 21.8097L24.5991 23.0559Z" fill="#88CE57"/>
<defs>
<filter id="filter0_i_1430_6756" x="4.52197" y="2.68164" width="41.0523" height="41.4708" filterUnits="userSpaceOnUse" color-interpolation-filters="sRGB">
<feFlood flood-opacity="0" result="BackgroundImageFix"/>
<feBlend mode="normal" in="SourceGraphic" in2="BackgroundImageFix" result="shape"/>
<feColorMatrix in="SourceAlpha" type="matrix" values="0 0 0 0 0 0 0 0 0 0 0 0 0 0 0 0 0 0 127 0" result="hardAlpha"/>
<feOffset dx="1.58551" dy="3.17102"/>
<feGaussianBlur stdDeviation="1.58551"/>
<feComposite in2="hardAlpha" operator="arithmetic" k2="-1" k3="1"/>
<feColorMatrix type="matrix" values="0 0 0 0 1 0 0 0 0 1 0 0 0 0 1 0 0 0 1 0"/>
<feBlend mode="normal" in2="shape" result="effect1_innerShadow_1430_6756"/>
</filter>
</defs>
</svg>
