<svg width="210" height="124" viewBox="0 0 210 124" fill="none" xmlns="http://www.w3.org/2000/svg">
<rect width="154.588" height="51.1919" rx="10.2" transform="matrix(0.989069 0.147474 0.152794 -0.988261 32.3633 67.9053)" fill="#6061F0"/>
<g filter="url(#filter0_d_3961_86225)">
<rect width="154.588" height="51.1919" rx="10.2" transform="matrix(0.989069 0.147474 0.152794 -0.988261 32.8281 64.8809)" fill="white"/>
</g>
<rect width="38.3675" height="36.1104" rx="7.52302" transform="matrix(0.989062 0.147521 0.152746 -0.988269 47.3726 59.1152)" fill="#6061F0" fill-opacity="0.12"/>
<g clip-path="url(#clip0_3961_86225)">
<path opacity="0.1" d="M79.7787 45.366C78.8306 51.2236 73.3134 55.2035 67.4558 54.2553C61.5981 53.3072 57.6182 47.79 58.5664 41.9323C59.5146 36.0747 65.0318 32.0948 70.8894 33.043C76.747 33.9912 80.7269 39.5083 79.7787 45.366Z" fill="#6061F0"/>
<path d="M79.7787 45.366C78.8306 51.2236 73.3134 55.2035 67.4558 54.2553C61.5981 53.3072 57.6182 47.79 58.5664 41.9323C59.5146 36.0747 65.0318 32.0948 70.8894 33.043C76.747 33.9912 80.7269 39.5083 79.7787 45.366Z" stroke="#6061F0" stroke-width="2.38761"/>
<path d="M70.1265 37.7568L69.2681 43.0599L69.2643 43.083C69.2071 43.4367 69.3304 43.7956 69.593 44.0395L72.3266 46.5784" stroke="#6061F0" stroke-width="2.38761" stroke-linecap="round" stroke-linejoin="round"/>
</g>
<path d="M104.208 44.2428L101.624 43.8573L101.853 42.3755L109.084 43.4541L108.855 44.9359L106.073 44.5209L104.921 51.9723L103.057 51.6942L104.208 44.2428ZM111.589 46.412L110.599 52.8191L108.805 52.5515L109.795 46.1445L111.589 46.412ZM109.836 44.4759C109.883 44.1748 110.026 43.9315 110.267 43.746C110.519 43.5525 110.79 43.4775 111.082 43.5211C111.393 43.5674 111.64 43.7149 111.823 43.9636C112.015 44.2137 112.088 44.494 112.04 44.8045C111.989 45.1338 111.839 45.3858 111.59 45.5604C111.351 45.7365 111.067 45.8 110.737 45.7508C110.427 45.7045 110.184 45.5624 110.009 45.3245C109.844 45.0786 109.787 44.7957 109.836 44.4759ZM115.037 47.5616C115.646 47.1134 116.346 46.9483 117.137 47.0663C117.683 47.1477 118.145 47.3369 118.523 47.6339C118.912 47.9229 119.156 48.2723 119.257 48.6819C119.522 48.3364 119.89 48.0784 120.359 47.9078C120.838 47.7386 121.336 47.6926 121.854 47.7699C123.361 47.9946 123.973 49.0195 123.691 50.8447L123.098 54.6833L121.304 54.4158L121.823 51.057C121.92 50.4267 121.895 49.9704 121.745 49.6883C121.607 49.3982 121.322 49.2208 120.889 49.1562C120.267 49.0636 119.726 49.233 119.264 49.6647L118.592 54.0113L116.812 53.7459L117.362 50.1896C117.448 49.6345 117.409 49.2293 117.247 48.974C117.085 48.7093 116.764 48.5411 116.284 48.4695C116.002 48.4274 115.727 48.4297 115.459 48.4764C115.202 48.5246 115.026 48.6042 114.931 48.7153L114.214 53.3583L112.434 53.0928L113.424 46.6858L114.936 46.9112L114.967 47.5511L115.037 47.5616ZM131.282 53.2186L126.875 52.5613C126.846 52.9997 126.964 53.3879 127.23 53.7259C127.506 54.0559 127.861 54.2532 128.294 54.3178C128.906 54.4091 129.576 54.3165 130.302 54.0398L130.608 55.0528C129.837 55.5538 128.943 55.7285 127.926 55.5768C126.834 55.4139 126.03 54.9763 125.514 54.2641C125.02 53.5937 124.853 52.7457 125.011 51.7202C125.167 50.7136 125.625 49.9301 126.386 49.3698C127.072 48.8561 127.872 48.6674 128.785 48.8037C129.802 48.9553 130.54 49.4167 130.999 50.1878C131.398 50.8441 131.526 51.638 131.382 52.5694L131.282 53.2186ZM126.979 51.2341L129.705 51.6407C129.8 50.7117 129.424 50.184 128.577 50.0576C127.758 49.9354 127.225 50.3276 126.979 51.2341ZM140.265 52.2772C139.85 51.9073 139.346 51.6782 138.752 51.5897C138.301 51.5223 138.045 51.6814 137.985 52.0672C137.93 52.4247 138.197 52.7244 138.785 52.9662C139.519 53.2681 140.004 53.557 140.241 53.833C140.584 54.2306 140.703 54.7682 140.598 55.4456C140.505 56.0477 140.215 56.4952 139.726 56.7881C139.247 57.0825 138.645 57.1756 137.92 57.0674C136.894 56.9143 136.073 56.4935 135.457 55.8048L136.259 54.9139C136.689 55.3726 137.248 55.6533 137.935 55.7558C138.208 55.7965 138.44 55.7637 138.63 55.6572C138.819 55.5508 138.931 55.3894 138.964 55.173C139.026 54.7778 138.731 54.4693 138.082 54.2472C136.693 53.7609 136.085 52.958 136.258 51.8384C136.341 51.3021 136.626 50.8875 137.115 50.5946C137.612 50.3031 138.191 50.2065 138.85 50.3048C139.744 50.4382 140.481 50.8128 141.06 51.4286L140.265 52.2772ZM146.982 58.2457L145.555 58.033L145.508 57.4051C144.807 57.8298 144.136 57.9945 143.495 57.899C142.074 57.6869 141.47 56.8894 141.683 55.5063C141.79 54.8195 142.169 54.3275 142.822 54.0302C143.486 53.725 144.406 53.6601 145.583 53.8357L145.879 53.8799L145.884 53.8517C145.946 53.4471 145.904 53.1569 145.758 52.9811C145.612 52.8053 145.318 52.6844 144.875 52.6184C144.254 52.5257 143.653 52.6383 143.075 52.9562C142.953 52.6205 142.84 52.2908 142.736 51.9673C143.337 51.6334 143.846 51.4253 144.263 51.3432C144.691 51.2531 145.183 51.2494 145.739 51.3323C147.245 51.557 147.853 52.6102 147.562 54.4918L146.982 58.2457ZM145.655 54.9581L145.443 54.9265C144.906 54.8465 144.459 54.876 144.1 55.015C143.741 55.154 143.538 55.3787 143.49 55.6892C143.4 56.2725 143.609 56.6021 144.118 56.6779C144.428 56.7243 144.715 56.6756 144.978 56.532C145.241 56.3883 145.417 56.1836 145.507 55.9178L145.655 54.9581ZM152.038 58.9998L150.653 58.7933L149.144 52.0134L150.938 52.281L151.653 56.719L153.762 52.7023L155.627 52.9803L155.256 53.6036L154.827 54.3193C153.617 56.3526 152.687 57.9128 152.038 58.9998ZM158.526 53.4127L157.535 59.8198L155.742 59.5523L156.732 53.1452L158.526 53.4127ZM156.773 51.4766C156.82 51.1755 156.963 50.9322 157.204 50.7467C157.455 50.5532 157.727 50.4782 158.019 50.5218C158.33 50.5681 158.576 50.7156 158.76 50.9643C158.952 51.2144 159.024 51.4947 158.976 51.8052C158.925 52.1345 158.776 52.3865 158.527 52.5611C158.288 52.7372 158.004 52.8007 157.674 52.7515C157.363 52.7052 157.12 52.5631 156.945 52.3252C156.781 52.0793 156.724 51.7964 156.773 51.4766ZM161.988 54.5644C162.21 54.3761 162.521 54.2348 162.921 54.1405C163.322 54.0367 163.692 54.0101 164.031 54.0606C164.841 54.1814 165.391 54.4896 165.68 54.9851C165.979 55.4821 166.052 56.2245 165.899 57.2124L165.317 60.9804L163.523 60.7129L164.095 57.0154C164.237 56.0934 163.899 55.5713 163.08 55.4491C162.872 55.4182 162.644 55.4323 162.394 55.4912C162.146 55.5408 161.97 55.6157 161.868 55.716L161.15 60.359L159.371 60.0935L160.361 53.6865L161.872 53.9119C161.882 54.1635 161.897 54.3775 161.918 54.5539L161.988 54.5644ZM171.351 61.0864C170.83 61.6535 170.184 61.8795 169.411 61.7644C168.47 61.6239 167.792 61.1811 167.377 60.4359C167.022 59.8054 166.911 59.0573 167.045 58.1918C167.235 56.9593 167.74 56.0624 168.559 55.5012C169.182 55.084 169.866 54.9309 170.609 55.0418C171.203 55.1303 171.684 55.3512 172.053 55.7047C172.297 55.9336 172.412 56.0951 172.397 56.1892L172.645 55.5187L174.015 55.7231L173.128 61.4668C172.96 62.5488 172.563 63.3414 171.936 63.8446C171.32 64.3399 170.523 64.5145 169.544 64.3685C168.527 64.2168 167.699 63.7468 167.059 62.9584L167.651 62.1226C168.167 62.5846 168.783 62.869 169.499 62.9757C170.516 63.1274 171.133 62.4976 171.351 61.0864ZM171.886 57.6288C171.893 57.3316 171.786 57.0605 171.563 56.8156C171.352 56.5627 171.096 56.4137 170.794 56.3688C170.324 56.2986 169.918 56.4306 169.577 56.7648C169.237 57.099 169.017 57.586 168.918 58.2257C168.701 59.6276 169.054 60.3973 169.977 60.5349C170.363 60.5925 170.72 60.4965 171.048 60.247C171.377 59.9881 171.572 59.6563 171.635 59.2518L171.886 57.6288Z" fill="#252238"/>
<defs>
<filter id="filter0_d_3961_86225" x="0.0752907" y="0.496288" width="209.906" height="122.667" filterUnits="userSpaceOnUse" color-interpolation-filters="sRGB">
<feFlood flood-opacity="0" result="BackgroundImageFix"/>
<feColorMatrix in="SourceAlpha" type="matrix" values="0 0 0 0 0 0 0 0 0 0 0 0 0 0 0 0 0 0 127 0" result="hardAlpha"/>
<feMorphology radius="4.33839" operator="dilate" in="SourceAlpha" result="effect1_dropShadow_3961_86225"/>
<feOffset dx="-8.15998" dy="10.846"/>
<feGaussianBlur stdDeviation="10.846"/>
<feColorMatrix type="matrix" values="0 0 0 0 0.52549 0 0 0 0 0.658824 0 0 0 0 0.905882 0 0 0 0.12 0"/>
<feBlend mode="normal" in2="BackgroundImageFix" result="effect1_dropShadow_3961_86225"/>
<feBlend mode="normal" in="SourceGraphic" in2="effect1_dropShadow_3961_86225" result="shape"/>
</filter>
<clipPath id="clip0_3961_86225">
<rect width="28.6513" height="28.6513" fill="white" transform="translate(57.3208 27.2188) rotate(9.19464)"/>
</clipPath>
</defs>
</svg>
